<?xml version="1.0" encoding="UTF-8"?>
<svg version="1.1" xmlns="http://www.w3.org/2000/svg" width="2000" height="2000">
<path d="M0 0 C660 0 1320 0 2000 0 C2000 660 2000 1320 2000 2000 C1340 2000 680 2000 0 2000 C0 1340 0 680 0 0 Z " fill="#FF914D" transform="translate(0,0)"/>
<path d="M0 0 C0.69121948 0.08441345 1.38243896 0.1688269 2.09460449 0.25579834 C10.76028687 1.32329456 19.3821734 2.60182377 28 4 C29.72452393 4.27215332 29.72452393 4.27215332 31.48388672 4.54980469 C45.58703272 6.78827698 59.56930755 9.4364865 73.5 12.5625 C75.38585815 12.98366089 75.38585815 12.98366089 77.30981445 13.41333008 C84.2234794 15.00162316 90.99037672 16.84199689 97.75170898 18.98608398 C101.07060524 20.0220386 104.40534803 20.97096387 107.75390625 21.90625 C178.18317846 41.90384476 244.01462759 74.15514472 304 116 C304.62712891 116.43521973 305.25425781 116.87043945 305.90039062 117.31884766 C316.22700591 124.50022868 326.1227226 132.21670541 336 140 C336.94875 140.7425 337.8975 141.485 338.875 142.25 C349.76847703 150.85011345 360.16239729 160.03077174 370.32885742 169.47241211 C371.57618358 170.61259031 372.83629561 171.73881033 374.1027832 172.85766602 C380.95192191 178.92404602 387.4501707 185.29665897 393.90551758 191.77514648 C395.6917467 193.5667595 397.48329347 195.35293055 399.27539062 197.13867188 C405.06387504 202.92339287 410.72218563 208.73905483 416 215 C417.05675359 216.21514442 418.11535412 217.42868506 419.17578125 218.640625 C428.99575716 229.92827293 438.63709423 241.30849683 447.66845703 253.24316406 C449.05319353 255.07018347 450.44645067 256.89051404 451.83984375 258.7109375 C463.68658896 274.26383929 474.51533308 290.50561857 485 307 C485.97453125 308.51980469 485.97453125 308.51980469 486.96875 310.0703125 C519.57095622 361.8746656 546.1693042 420.37301842 561.18359375 479.82421875 C561.99417607 482.9773452 562.9265616 486.0733966 563.875 489.1875 C567.26307278 500.95238264 569.53773362 513.01534849 572 525 C572.19094238 525.91668457 572.38188477 526.83336914 572.57861328 527.77783203 C575.00860241 539.51630255 576.86917364 551.33254739 578.625 563.1875 C578.7295047 563.88917297 578.8340094 564.59084595 578.94168091 565.31378174 C581.62960187 583.46063768 583.37176446 601.47904948 584.125 619.8125 C584.16669312 620.8008786 584.20838623 621.7892572 584.25134277 622.80758667 C586.37176958 673.6288191 584.53445761 724.29281102 574.54199219 774.26318359 C574.08215206 776.58516909 573.6439437 778.90837934 573.2265625 781.23828125 C571.66781496 789.92142196 569.87780295 798.55481358 568.0625 807.1875 C567.82152588 808.3520874 567.58055176 809.5166748 567.33227539 810.71655273 C565.88656898 817.50882643 564.13478823 824.10405723 562.03051758 830.72119141 C560.97345082 834.0844718 559.99724519 837.46277103 559.0390625 840.85546875 C552.83213356 862.71872624 545.92420774 884.07834741 537 905 C536.47437077 906.23792353 535.94882048 907.47588058 535.42333984 908.71386719 C526.41111702 929.90734527 516.99382979 950.75112277 506 971 C505.47631836 971.96502441 504.95263672 972.93004883 504.41308594 973.92431641 C496.18716351 989.0083793 487.41703065 1003.6312327 478 1018 C477.60619141 1018.60585937 477.21238281 1019.21171875 476.80664062 1019.8359375 C457.24089115 1049.93709054 434.91577822 1078.0374197 410.51342773 1104.34301758 C409.37405866 1105.59046038 408.24821794 1106.85027993 407.12915039 1108.1159668 C401.19769593 1114.80770804 394.9842873 1121.16965386 388.65209961 1127.47827148 C386.9329133 1129.19207233 385.21917417 1130.91119082 383.50585938 1132.63085938 C377.83807874 1138.30206849 372.11490773 1143.80705763 366 1149 C364.39231627 1150.45445517 362.78760285 1151.91220895 361.1875 1153.375 C355.93862774 1158.10615345 350.49437924 1162.55876785 345 1167 C343.76879913 1168.01082767 342.53837382 1169.02260049 341.30859375 1170.03515625 C282.05761565 1218.71346911 214.08902909 1255.68367627 141.97021484 1281.29943848 C140.12727181 1281.95474517 138.28621879 1282.61536045 136.4453125 1283.27636719 C109.47626506 1292.89797146 81.47191886 1300.30430714 53.29443359 1305.39941406 C50.22864684 1305.95831694 47.16733356 1306.53795384 44.10667419 1307.12420654 C16.48244603 1312.40819875 -10.89630838 1315.5251277 -39 1317 C-40.66434082 1317.08894531 -40.66434082 1317.08894531 -42.36230469 1317.1796875 C-49.90611981 1317.56737821 -57.44828773 1317.8275962 -65 1318 C-66.22332031 1318.02868164 -67.44664062 1318.05736328 -68.70703125 1318.08691406 C-122.69270914 1319.15848908 -176.30947234 1312.82263449 -228.8125 1300.4375 C-229.61719727 1300.24772583 -230.42189453 1300.05795166 -231.25097656 1299.86242676 C-241.24582458 1297.49331175 -251.1525514 1294.93147191 -261 1292 C-262.24918213 1291.63092529 -263.49836426 1291.26185059 -264.78540039 1290.8815918 C-314.9769798 1275.95192196 -363.51075813 1255.49562769 -408.45410156 1228.52490234 C-410.63633938 1227.21781974 -412.82620196 1225.92615784 -415.0234375 1224.64453125 C-438.07805222 1211.13460196 -460.54138063 1196.09106787 -481.35107422 1179.31787109 C-483.03504463 1177.97199127 -484.73493918 1176.64924506 -486.44140625 1175.33203125 C-498.78743619 1165.78846377 -510.45825768 1155.49594482 -522 1145 C-522.87269531 1144.21214111 -523.74539063 1143.42428223 -524.64453125 1142.61254883 C-531.67829347 1136.22527211 -538.49719157 1129.65974094 -545.2019043 1122.9284668 C-546.82552229 1121.29943428 -548.45449603 1119.67589272 -550.08398438 1118.05273438 C-555.60079613 1112.53942925 -560.93308378 1106.93311473 -566 1101 C-567.61967817 1099.22429779 -569.24411718 1097.45291693 -570.875 1095.6875 C-574.98459846 1091.18059897 -578.89258408 1086.55411375 -582.72265625 1081.80859375 C-585.09373991 1078.88439281 -587.51219831 1076.00433633 -589.9375 1073.125 C-616.63560252 1041.08727698 -639.14476132 1005.60223487 -659 969 C-659.90903076 967.3298584 -659.90903076 967.3298584 -660.83642578 965.62597656 C-681.57355427 927.27402479 -698.5015085 886.0989287 -710.13525391 844.07177734 C-710.99408693 841.02100458 -711.9000288 837.98859092 -712.82421875 834.95703125 C-723.04761182 801.31317454 -729.32396187 766.28310162 -733.375 731.375 C-733.45453918 730.69001434 -733.53407837 730.00502869 -733.61602783 729.29928589 C-735.79562831 710.24208692 -736.51196416 691.17154199 -736.95318604 672.00982666 C-736.99656201 670.14760041 -737.04377039 668.28546449 -737.09130859 666.42333984 C-738.21107495 617.04663621 -733.56174891 567.12322565 -722.65527344 518.94921875 C-722.04704282 516.21172774 -721.48413503 513.47063117 -720.9453125 510.71875 C-719.03628394 501.00562047 -716.52826945 491.61619856 -713.5625 482.171875 C-712.29695809 478.09993552 -711.20219402 473.99773274 -710.12890625 469.87109375 C-708.041798 461.91196558 -705.55655953 454.11078821 -702.9375 446.3125 C-702.69945648 445.60212585 -702.46141296 444.89175171 -702.21615601 444.15985107 C-685.0446374 393.08999155 -661.36262545 344.17640913 -632 299 C-631.56977539 298.33806641 -631.13955078 297.67613281 -630.69628906 296.99414062 C-621.48165476 282.88085998 -611.81114694 269.07713958 -601.41162109 255.81054688 C-599.79044478 253.73122423 -598.18603197 251.63947357 -596.58203125 249.546875 C-590.95786828 242.22901601 -585.33329323 235.02603651 -579.046875 228.2578125 C-576.90211569 225.89202837 -574.92302194 223.43806334 -572.9375 220.9375 C-562.51730799 208.13046059 -550.64626355 196.55415536 -539 184.875 C-538.46375 184.33607117 -537.9275 183.79714233 -537.375 183.24188232 C-531.42901676 177.27335572 -525.40677583 171.47750641 -519 166 C-517.22429779 164.38032183 -515.45291693 162.75588282 -513.6875 161.125 C-508.28514654 156.20433786 -502.69899997 151.57115069 -497 147 C-495.89157874 146.09938688 -494.78352207 145.19832492 -493.67578125 144.296875 C-428.80115083 91.70619827 -354.34298161 51.08343343 -274.625 26.0625 C-273.90095978 25.83498047 -273.17691956 25.60746094 -272.43093872 25.37304688 C-248.81741894 17.98652442 -224.73448647 12.04619002 -200.421875 7.46337891 C-198.04778993 7.00914368 -195.68040936 6.5282525 -193.3125 6.04296875 C-180.60123986 3.51109223 -167.79624878 1.8786397 -154.9375 0.3125 C-154.04954742 0.20390656 -153.16159485 0.09531311 -152.24673462 -0.01657104 C-142.1788474 -1.24009618 -132.1260918 -2.37461312 -122 -3 C-121.1128833 -3.05518799 -120.2257666 -3.11037598 -119.31176758 -3.16723633 C-79.47941105 -5.40147573 -39.60211599 -4.86957273 0 0 Z " fill="#FFFAEC" transform="translate(1076,343)"/>
<path d="M0 0 C7.86794562 -0.12089366 15.73561609 -0.21723982 23.60427856 -0.27702332 C27.4498238 -0.30665378 31.29464231 -0.34563176 35.1397686 -0.41049957 C38.73877818 -0.47059168 42.33688152 -0.50054694 45.93637085 -0.50901604 C47.87943597 -0.5207947 49.82224981 -0.56248933 51.76487541 -0.60546112 C62.38523142 -0.58132648 72.48947538 2.16645457 80.54125786 9.47481537 C87.05871145 16.89747085 88.56869104 24.3493453 88.54565239 33.98775482 C88.54740471 34.88820023 88.54915703 35.78864563 88.55096245 36.71637726 C88.55538316 39.71530305 88.55243167 42.71417013 88.54907036 45.71309662 C88.54974583 47.83680991 88.55071787 49.96052312 88.55196953 52.08423615 C88.55344879 56.57096328 88.55129376 61.05767061 88.54662895 65.54439545 C88.54107797 71.14206266 88.54420935 76.73968078 88.55007362 82.33734608 C88.57151319 106.56165969 88.37691566 130.76648285 87.80190849 154.98412323 C87.49149947 168.08879774 87.27208292 181.19139857 87.13500786 194.29903412 C87.12544941 195.19364664 87.11589096 196.08825916 87.10604286 197.00998116 C87.0298241 204.17794572 86.95870894 211.34595782 86.89019585 218.51399994 C86.78197057 229.83653294 86.65603851 241.15838648 86.48266411 252.48012543 C86.43774652 255.45443465 86.40225072 258.42855791 86.37719536 261.40309906 C86.34435646 265.22580968 86.27346962 269.0472353 86.19750786 272.86934662 C86.19368095 273.93739029 86.18985405 275.00543396 86.18591118 276.10584259 C85.91309921 286.48707496 82.79010474 296.79382831 75.43969536 304.38497162 C65.07718951 313.1670953 54.7031476 315.11733543 41.53344536 314.34688568 C36.82370951 313.79727167 33.21411005 311.81471565 29.41625786 309.09981537 C28.8374688 308.72727631 28.25867973 308.35473724 27.66235161 307.97090912 C21.10861785 303.25681992 18.30713041 295.63850247 16.41625786 288.09981537 C16.1574688 284.70552826 16.1574688 284.70552826 16.15063286 281.07247162 C16.14790367 280.39236023 16.14517448 279.71224884 16.14236259 279.01152802 C16.13825687 276.72827014 16.15117944 274.44552294 16.16625786 272.16231537 C16.16869499 271.35537231 16.17113213 270.54842926 16.17364311 269.71703339 C16.29473415 234.62900107 18.13128489 199.54024223 19.73168755 164.49507904 C20.22711078 153.61500234 20.68009232 142.73522357 21.04125786 131.84981537 C21.08129936 130.68571136 21.12134087 129.52160736 21.16259575 128.32222748 C21.36239437 121.93655218 21.43608175 115.5592368 21.4255352 109.17110443 C21.42486549 108.39123169 21.42419579 107.61135895 21.42350578 106.8078537 C21.42177458 104.90517351 21.41911303 103.0024942 21.41625786 101.09981537 C-22.39574402 144.15691332 -66.18021911 187.2419177 -109.82032967 230.47330475 C-110.46726114 231.11416171 -111.11419262 231.75501868 -111.78072807 232.41529555 C-125.84354278 246.34639135 -139.90145718 260.2824222 -153.95433887 274.22353761 C-160.84690497 281.06122574 -167.74055191 287.89782363 -174.63476753 294.73384857 C-175.32076957 295.41409721 -176.00677161 296.09434585 -176.71356158 296.79520808 C-198.90937584 318.8038575 -221.17548121 340.73972464 -243.47958384 362.63857935 C-266.41902717 385.16198586 -289.28480105 407.75768593 -312.06169723 430.44551089 C-315.28618976 433.6573265 -318.51150548 436.86831425 -321.73732376 440.07879829 C-322.68952173 441.02654635 -322.68952173 441.02654635 -323.66095603 441.99344083 C-333.84081197 452.12150146 -344.09438324 462.17156508 -354.37833086 472.1937946 C-364.74137858 482.29636043 -375.02066142 492.47849135 -385.22217494 502.74418756 C-390.74316091 508.2954962 -396.29303969 513.8064548 -401.94922256 519.2202549 C-429.50550108 544.22170044 -429.50550108 544.22170044 -440.7676357 578.21388322 C-440.80325014 585.68707515 -440.14396656 593.04953855 -439.15220726 600.45014632 C-438.37189729 606.33520745 -438.51832289 612.09835714 -438.79097176 618.01656342 C-438.81940845 619.75979553 -438.84069982 621.50316196 -438.85411263 623.2465744 C-438.86754109 624.49279257 -438.86754109 624.49279257 -438.88124084 625.76418686 C-438.89046129 626.62131145 -438.89968174 627.47843605 -438.90918159 628.36153412 C-438.93214339 630.31750023 -438.95536774 632.27346327 -438.97882271 634.22942352 C-439.02771319 638.31944047 -439.07559327 642.40946737 -439.12279892 646.49950409 C-439.19843067 652.98410268 -439.28130933 659.46859793 -439.36577034 665.95308685 C-439.38021275 667.06285542 -439.39465517 668.172624 -439.40953523 669.31602192 C-439.46869448 673.85377036 -439.5280456 678.39151628 -439.58740103 682.92926216 C-439.75364443 695.66667344 -439.91323588 708.40410038 -440.05517769 721.14180756 C-440.16948305 731.39483008 -440.29733639 741.64758385 -440.44095963 751.90023899 C-440.51591552 757.28729586 -440.58420885 762.67424136 -440.63579941 768.06157684 C-440.68415839 773.09881286 -440.75052975 778.13549708 -440.83040047 783.17232895 C-440.85638571 785.0083644 -440.87592946 786.84450516 -440.88825226 788.68068314 C-440.99462704 803.6567673 -442.40685715 817.92293038 -453.54858589 829.06465912 C-462.19405666 836.45942887 -472.02582871 838.86211748 -483.25561714 838.47872162 C-491.96939327 837.48666025 -498.78954586 833.65538711 -504.58374214 827.09981537 C-510.62100523 818.55854748 -511.91947719 809.9398666 -511.79467964 799.71700287 C-511.78802284 798.684776 -511.78136604 797.65254913 -511.77450752 796.58904266 C-511.63325109 783.33559442 -511.00995188 770.0948973 -510.41571236 756.85570526 C-510.05630316 748.84524624 -509.7170665 740.8339235 -509.38061714 732.82247162 C-509.34624928 732.00643148 -509.31188141 731.19039135 -509.27647209 730.34962273 C-508.43983483 710.39059727 -507.83870506 690.42528733 -507.28639984 670.45662308 C-506.90421117 656.65696129 -506.47738239 642.87696258 -505.58374214 629.09981537 C-507.36887323 630.57448888 -509.10127259 632.08329335 -510.81152534 633.64517975 C-512.86427161 635.46276634 -514.91077995 637.12588654 -517.07617378 638.79456329 C-522.58066948 643.30069786 -527.52673887 647.71462363 -528.79760933 654.97911835 C-529.3476563 660.89203563 -529.10229123 666.78789687 -528.89624214 672.71309662 C-528.87039848 675.02017823 -528.85243156 677.32735892 -528.84155464 679.63455963 C-528.81208297 684.70516564 -528.74928376 689.77398569 -528.6682148 694.84401703 C-528.54304549 703.5311627 -528.64677844 712.21170634 -528.78296089 720.89815521 C-528.80070029 722.04426281 -528.80070029 722.04426281 -528.81879807 723.2135241 C-528.86777976 726.35268922 -528.91767652 729.49183729 -528.9691267 732.63096297 C-529.10134192 740.72518551 -529.20377852 748.8197062 -529.30331039 756.91438699 C-529.34400608 760.21563205 -529.38571866 763.51686401 -529.42738056 766.818097 C-529.51144965 773.48495623 -529.59453812 780.15182769 -529.67748928 786.81870091 C-529.72938003 790.98597587 -529.7814851 795.15324811 -529.83374214 799.32051849 C-529.84399233 800.13799694 -529.85424252 800.95547539 -529.86480331 801.79772592 C-530.03242894 815.12656388 -530.21459029 828.45515891 -530.40983772 841.78362083 C-530.52032608 849.36170358 -530.61709255 856.93972556 -530.69375801 864.51824093 C-530.73697404 868.45793162 -530.79515013 872.39727579 -530.85864449 876.33668709 C-530.88308143 878.04374624 -530.90117582 879.75091214 -530.91186714 881.45811272 C-530.99647676 894.3288239 -532.05095805 907.4789686 -541.58374214 917.09981537 C-550.10088357 924.82466457 -559.75800712 928.50288463 -571.22827339 928.31075287 C-579.70300231 927.55182192 -587.49748704 923.31960822 -593.37671089 917.24825287 C-600.78770494 908.06228 -601.0124822 898.4940178 -600.82592964 887.05294037 C-600.81275387 885.58755561 -600.80055569 884.12216177 -600.78927803 882.65676117 C-600.74740031 878.13721299 -600.67132153 873.61868711 -600.58374214 869.09981537 C-600.57041344 868.40628967 -600.55708473 867.71276398 -600.54335213 866.99822235 C-600.35765804 857.63999518 -600.08249979 848.28484773 -599.77622795 838.92991257 C-599.70713328 836.80022592 -599.64024401 834.67048017 -599.57400703 832.54070282 C-598.99196615 813.84177519 -598.28799018 795.15203337 -597.39190865 776.46520233 C-596.70447945 762.09950572 -596.30924095 747.74241322 -596.03222847 733.36336517 C-595.67581641 715.24575193 -594.73128827 697.18284499 -593.58374214 679.09981537 C-595.02311386 679.19939545 -595.02311386 679.19939545 -596.4915638 679.30098724 C-608.87332084 680.11557106 -621.24553922 680.38689951 -633.65014839 680.59981537 C-635.85848323 680.6404748 -638.06681138 680.68149836 -640.27513313 680.72286224 C-646.06093683 680.83054011 -651.8468 680.93452287 -657.63269234 681.03731537 C-667.93025715 681.22049131 -678.2277355 681.40829696 -688.52514839 681.59981537 C-689.63173868 681.62029497 -690.73832897 681.64077457 -691.8784523 681.66187477 C-706.21133518 681.92931569 -720.53740834 682.27240263 -734.86465645 682.75434113 C-746.76207462 683.15276384 -758.66033157 683.39756735 -770.56250191 683.60250092 C-774.07549736 683.66325364 -777.588404 683.72801757 -781.10132027 683.79317474 C-787.5952692 683.91101021 -794.08929436 684.01376573 -800.58374214 684.09981537 C-801.92665321 684.11782196 -801.92665321 684.11782196 -803.2966938 684.13619232 C-805.66453001 684.16427823 -808.03219316 684.18326155 -810.40014839 684.19747162 C-812.31162666 684.21112762 -812.31162666 684.21112762 -814.26172066 684.22505951 C-824.41628106 683.84222057 -832.97897102 679.20049947 -839.89624214 671.84981537 C-846.19765005 663.8106933 -847.79421543 655.14180296 -846.58374214 645.09981537 C-844.24774897 635.79521334 -839.2507966 628.65139502 -831.39624214 623.22481537 C-813.83295854 612.90726559 -786.17542895 616.90527717 -766.54019356 616.65425873 C-759.37618667 616.56252229 -752.21237743 616.4569069 -745.04858589 616.34981537 C-744.35110426 616.33945755 -743.65362263 616.32909973 -742.93500519 616.31842804 C-731.74149493 616.15068114 -720.55929678 615.87158125 -709.37158394 615.47481537 C-700.24029805 615.1697042 -691.1096222 614.99430695 -681.97436714 614.84981537 C-681.31188154 614.8393367 -680.64939594 614.82885803 -679.96683502 614.81806183 C-672.60331055 614.70218028 -665.23971689 614.59385186 -657.87597847 614.49239349 C-655.35277598 614.45590987 -652.82958238 614.41880628 -650.30639839 614.38106537 C-649.06337456 614.36259048 -647.82035072 614.3441156 -646.5396595 614.32508087 C-638.45860052 614.18963895 -630.39534445 613.89485558 -622.32202339 613.52559662 C-613.71134355 613.13458809 -605.20371713 613.17041504 -596.59155464 613.48653412 C-593.3716187 613.5648868 -590.15167255 613.63291251 -586.93139839 613.69576263 C-584.77099914 613.75713761 -582.61131706 613.85259125 -580.45385933 613.98091888 C-569.74759229 614.58437179 -561.074598 614.73208468 -552.56323433 607.53194427 C-547.50998724 602.72215036 -542.92135482 597.55993902 -538.58374214 592.09981537 C-547.68783374 592.03616604 -556.79196186 591.99693374 -565.89624214 591.97481537 C-566.60013824 591.97310333 -567.30403435 591.9713913 -568.02926064 591.96962738 C-591.47783167 591.91963132 -614.89113603 592.32925787 -638.32859993 593.0290451 C-660.59930101 593.69123385 -682.86780256 594.33969323 -705.14935493 594.45430756 C-707.44811294 594.46778883 -709.74684289 594.48809538 -712.0454731 594.51583099 C-715.174419 594.55128449 -718.30227678 594.56014123 -721.43139839 594.56075287 C-722.76822922 594.58218857 -722.76822922 594.58218857 -724.13206673 594.60405731 C-734.35794409 594.53024989 -742.1180111 590.62512527 -749.37671089 583.56075287 C-756.36667669 575.76663171 -757.4996576 568.26035531 -756.99780464 558.09981537 C-756.26824731 549.32882441 -751.94103683 543.00923803 -745.58374214 537.09981537 C-737.06256993 530.50796517 -729.51461438 528.07026519 -718.73681831 527.85030365 C-718.09754425 527.83700219 -717.45827018 527.82370074 -716.79962417 527.80999621 C-712.88677485 527.72915132 -708.97391502 527.65351719 -705.06080967 527.58613271 C-696.32417516 527.43001048 -687.59377336 527.23433476 -678.86230855 526.88984212 C-656.72052289 526.02981787 -634.8067634 525.54533955 -612.71437454 527.33596611 C-611.95234173 527.39761527 -611.19030891 527.45926443 -610.40518419 527.52278174 C-608.85012008 527.6489019 -607.29506363 527.77511665 -605.74001472 527.90142418 C-509.42822745 535.79994702 -509.42822745 535.79994702 -425.1416914 495.19515482 C-419.7938592 490.61936336 -414.64063882 485.83837009 -409.53857613 480.99166107 C-408.96860313 480.45023844 -408.39863014 479.90881581 -407.81138524 479.35098643 C-392.84742749 465.07633641 -378.754346 450.02728606 -364.85188448 434.72697913 C-356.601689 425.66200437 -348.15832678 416.81300621 -339.5656929 408.07237053 C-338.9459722 407.44178896 -338.3262515 406.8112074 -337.68775138 406.1615173 C-334.53662799 402.95689984 -331.38254505 399.75521223 -328.2273171 396.55463662 C-306.16837601 374.1681484 -284.494409 351.44276341 -263.04101753 328.47652435 C-242.26569673 306.23797996 -221.32166139 284.18098878 -200.13672066 262.3319931 C-199.47810093 261.65259224 -198.8194812 260.97319138 -198.1409033 260.27320261 C-191.52353914 253.44742179 -184.90270139 246.62501898 -178.27931875 239.8050783 C-164.79985521 225.92543521 -151.34358237 212.02340733 -137.90138435 198.10767365 C-136.97529369 197.14904526 -136.97529369 197.14904526 -136.03049412 196.17105064 C-95.15526178 153.85439247 -54.82496407 111.01874491 -14.58374214 68.09981537 C-22.83549528 68.08955582 -31.08724563 68.08184371 -39.33900362 68.07714754 C-43.17302274 68.07489056 -47.0070374 68.07184309 -50.84105396 68.06681061 C-71.75520797 68.04009697 -92.63935952 68.20567451 -113.5421772 68.95568085 C-120.91301728 69.21847234 -128.2855649 69.42902959 -135.65796089 69.64278412 C-136.74613987 69.67459306 -136.74613987 69.67459306 -137.85630226 69.7070446 C-151.17069081 70.09324435 -164.4835228 70.34858362 -177.80392647 70.39937592 C-179.87339189 70.40786381 -181.94284411 70.42136395 -184.01223946 70.44039154 C-197.75881706 70.55588137 -209.59117435 70.428757 -220.58374214 61.09981537 C-228.26450218 52.99979987 -230.30939814 44.97902294 -230.05639839 33.92403412 C-228.94509241 24.93255845 -224.24924655 17.76843084 -217.65796089 11.71700287 C-209.47128971 5.33417449 -200.61540257 3.81251218 -190.49780464 3.75606537 C-189.48624809 3.74216766 -188.47469154 3.72826996 -187.43248177 3.71395111 C-185.20757095 3.68401196 -182.9826018 3.6581968 -180.75760078 3.63594818 C-175.1652394 3.57900938 -169.5733004 3.49532334 -163.98128891 3.41127777 C-162.62456235 3.39097204 -161.26783078 3.37099844 -159.91109467 3.35134125 C-143.06492137 3.10626184 -126.22403948 2.66980168 -109.38189888 2.23451996 C-76.41010857 1.38369778 -43.43845015 0.53991147 -10.4574604 0.14919281 C-6.97153019 0.10475842 -3.4857946 0.05367588 0 0 Z " fill="#FFBD59" transform="translate(1316.5837421417236,587.9001846313477)"/>
<path d="M0 0 C7.86794562 -0.12089366 15.73561609 -0.21723982 23.60427856 -0.27702332 C27.4498238 -0.30665378 31.29464231 -0.34563176 35.1397686 -0.41049957 C38.73877818 -0.47059168 42.33688152 -0.50054694 45.93637085 -0.50901604 C47.87943597 -0.5207947 49.82224981 -0.56248933 51.76487541 -0.60546112 C62.38523142 -0.58132648 72.48947538 2.16645457 80.54125786 9.47481537 C87.05871145 16.89747085 88.56869104 24.3493453 88.54565239 33.98775482 C88.54740471 34.88820023 88.54915703 35.78864563 88.55096245 36.71637726 C88.55538316 39.71530305 88.55243167 42.71417013 88.54907036 45.71309662 C88.54974583 47.83680991 88.55071787 49.96052312 88.55196953 52.08423615 C88.55344879 56.57096328 88.55129376 61.05767061 88.54662895 65.54439545 C88.54107797 71.14206266 88.54420935 76.73968078 88.55007362 82.33734608 C88.57151319 106.56165969 88.37691566 130.76648285 87.80190849 154.98412323 C87.49149947 168.08879774 87.27208292 181.19139857 87.13500786 194.29903412 C87.12544941 195.19364664 87.11589096 196.08825916 87.10604286 197.00998116 C87.0298241 204.17794572 86.95870894 211.34595782 86.89019585 218.51399994 C86.78197057 229.83653294 86.65603851 241.15838648 86.48266411 252.48012543 C86.43774652 255.45443465 86.40225072 258.42855791 86.37719536 261.40309906 C86.34435646 265.22580968 86.27346962 269.0472353 86.19750786 272.86934662 C86.19368095 273.93739029 86.18985405 275.00543396 86.18591118 276.10584259 C85.91309921 286.48707496 82.79010474 296.79382831 75.43969536 304.38497162 C65.07718951 313.1670953 54.7031476 315.11733543 41.53344536 314.34688568 C36.82370951 313.79727167 33.21411005 311.81471565 29.41625786 309.09981537 C28.8374688 308.72727631 28.25867973 308.35473724 27.66235161 307.97090912 C21.10861785 303.25681992 18.30713041 295.63850247 16.41625786 288.09981537 C16.1574688 284.70552826 16.1574688 284.70552826 16.15063286 281.07247162 C16.14790367 280.39236023 16.14517448 279.71224884 16.14236259 279.01152802 C16.13825687 276.72827014 16.15117944 274.44552294 16.16625786 272.16231537 C16.16869499 271.35537231 16.17113213 270.54842926 16.17364311 269.71703339 C16.2888571 236.3319679 17.96920087 202.94642544 19.53970146 169.60405731 C20.50172217 149.03852427 21.08641645 128.46073859 21.65997982 107.88136101 C21.71846622 105.790979 21.77796082 103.70062798 21.83775139 101.6102829 C21.9104984 99.05348294 21.98114319 96.49662177 22.04908562 93.93968964 C22.31473323 84.6348155 22.8688545 75.40567238 23.41625786 66.09981537 C11.86625786 66.09981537 0.31625786 66.09981537 -11.58374214 66.09981537 C-12.24374214 67.41981537 -12.90374214 68.73981537 -13.58374214 70.09981537 C-15.02741355 71.79282911 -15.02741355 71.79282911 -16.74320042 73.50767064 C-17.39846642 74.16743122 -18.05373241 74.82719181 -18.72885495 75.50694513 C-19.45197376 76.22480991 -20.17509256 76.94267468 -20.92012405 77.68229294 C-21.6889534 78.45342997 -22.45778274 79.224567 -23.24990994 80.01907182 C-25.84848288 82.62297295 -28.45417695 85.21963119 -31.05984688 87.81642914 C-32.93466127 89.69211502 -34.80907473 91.56819381 -36.68300331 93.4447639 C-40.76891584 97.53482793 -44.8585388 101.62115246 -48.95059013 105.70507431 C-55.03533154 111.77776094 -61.11434548 117.85615663 -67.19218344 123.93575159 C-77.41552142 134.16171942 -87.64351419 144.38301955 -97.87415123 154.60168457 C-108.00643942 164.72214615 -118.13666351 174.84466646 -128.26412773 184.96995544 C-128.89339169 185.59908192 -129.52265565 186.2282084 -130.17098821 186.87639932 C-133.36658005 190.07131451 -136.56213495 193.26626664 -139.75767563 196.46123299 C-162.40256869 219.10192317 -185.05209702 241.73797106 -207.70434761 264.37129974 C-229.71320354 286.36179239 -251.71996185 308.35438074 -273.72387886 330.34981537 C-274.40191719 331.02759065 -275.07995552 331.70536593 -275.77854047 332.40367985 C-282.58756367 339.21006605 -289.39654419 346.01649494 -296.20549345 352.82295511 C-310.07659882 366.6889878 -323.94798904 380.55473552 -337.81955147 394.42031097 C-338.45736886 395.05785379 -339.09518625 395.6953966 -339.75233144 396.35225889 C-382.35803095 438.93955136 -424.97037052 481.52019987 -467.58374214 524.09981537 C-468.24374214 523.76981537 -468.90374214 523.43981537 -469.58374214 523.09981537 C-319.43374214 372.94981537 -169.28374214 222.79981537 -14.58374214 68.09981537 C-65.10998738 67.96338848 -65.10998738 67.96338848 -115.56920815 69.02795029 C-122.26457592 69.25960906 -128.96142094 69.44862529 -135.65796089 69.64278412 C-136.74613987 69.67459306 -136.74613987 69.67459306 -137.85630226 69.7070446 C-151.17069081 70.09324435 -164.4835228 70.34858362 -177.80392647 70.39937592 C-179.87339189 70.40786381 -181.94284411 70.42136395 -184.01223946 70.44039154 C-197.75881706 70.55588137 -209.59117435 70.428757 -220.58374214 61.09981537 C-228.26450218 52.99979987 -230.30939814 44.97902294 -230.05639839 33.92403412 C-228.94509241 24.93255845 -224.24924655 17.76843084 -217.65796089 11.71700287 C-209.47128971 5.33417449 -200.61540257 3.81251218 -190.49780464 3.75606537 C-189.48624809 3.74216766 -188.47469154 3.72826996 -187.43248177 3.71395111 C-185.20757095 3.68401196 -182.9826018 3.6581968 -180.75760078 3.63594818 C-175.1652394 3.57900938 -169.5733004 3.49532334 -163.98128891 3.41127777 C-162.62456235 3.39097204 -161.26783078 3.37099844 -159.91109467 3.35134125 C-143.06492137 3.10626184 -126.22403948 2.66980168 -109.38189888 2.23451996 C-76.41010857 1.38369778 -43.43845015 0.53991147 -10.4574604 0.14919281 C-6.97153019 0.10475842 -3.4857946 0.05367588 0 0 Z " fill="#FFBC5A" transform="translate(1316.5837421417236,587.9001846313477)"/>
<path d="M0 0 C3.35358533 -0.00992919 6.70660981 -0.04123762 10.06005859 -0.07226562 C12.23323216 -0.07877979 14.40640994 -0.08403644 16.57958984 -0.08789062 C17.56197632 -0.10023743 18.54436279 -0.11258423 19.55651855 -0.12530518 C30.13509099 -0.09140095 40.92256826 2.71815001 48.81005859 10.13085938 C54.93621715 16.86064362 57.92041027 23.2306085 57.92674255 32.37211609 C57.92964987 33.38826933 57.93255718 34.40442257 57.9355526 35.45136833 C57.93337542 36.55949442 57.93119823 37.66762051 57.92895508 38.80932617 C57.93015162 39.9900728 57.93134815 41.17081944 57.93258095 42.38734627 C57.93388974 45.65297677 57.9301768 48.91854944 57.92338109 52.18417192 C57.91940413 54.26738615 57.91716403 56.35059591 57.91537285 58.4338131 C57.88240562 92.17745624 57.44029765 125.91606561 56.96411836 159.65585983 C56.88268432 165.44330739 56.80453959 171.23079272 56.72827148 177.01831055 C56.49949604 194.35878206 56.2587864 211.69892313 55.98371315 229.03872871 C55.86503574 236.56519472 55.76240896 244.09155887 55.68431568 251.618577 C55.64057231 255.55737051 55.58221648 259.49583524 55.51916313 263.43436241 C55.49496528 265.14382587 55.47711125 266.85339504 55.46666145 268.56299782 C55.38424318 281.44674486 54.34236856 294.60803911 44.79833984 304.24023438 C36.28119841 311.96508358 26.62407487 315.64330364 15.15380859 315.45117188 C6.67907968 314.69224093 -1.11540506 310.46002722 -6.99462891 304.38867188 C-14.40562295 295.20269901 -14.63040022 285.63443681 -14.44384766 274.19335938 C-14.43067189 272.72797461 -14.4184737 271.26258077 -14.40719604 269.79718018 C-14.36531833 265.27763199 -14.28923954 260.75910612 -14.20166016 256.24023438 C-14.18833145 255.54670868 -14.17500275 254.85318298 -14.16127014 254.13864136 C-13.97557605 244.78041419 -13.70041781 235.42526673 -13.39414597 226.07033157 C-13.3250513 223.94064492 -13.25816203 221.81089918 -13.19192505 219.68112183 C-12.60988416 200.98219419 -11.90590819 182.29245238 -11.00982666 163.60562134 C-10.32239747 149.23992473 -9.92715896 134.88283222 -9.65014648 120.50378418 C-9.29373442 102.38617093 -8.34920628 84.32326399 -7.20166016 66.24023438 C-8.1612413 66.30662109 -9.12082245 66.37300781 -10.10948181 66.44140625 C-22.49123885 67.25599006 -34.86345724 67.52731851 -47.26806641 67.74023438 C-49.47640124 67.78089381 -51.6847294 67.82191736 -53.89305115 67.86328125 C-59.67885484 67.97095912 -65.46471801 68.07494188 -71.25061035 68.17773438 C-81.54817517 68.36091032 -91.84565351 68.54871596 -102.14306641 68.74023438 C-103.2496567 68.76071398 -104.35624699 68.78119358 -105.49637032 68.80229378 C-119.8292532 69.0697347 -134.15532635 69.41282163 -148.48257446 69.89476013 C-160.37999263 70.29318285 -172.27824958 70.53798636 -184.18041992 70.74291992 C-187.69341537 70.80367265 -191.20632202 70.86843658 -194.71923828 70.93359375 C-201.21318721 71.05142922 -207.70721237 71.15418473 -214.20166016 71.24023438 C-215.0969342 71.25223877 -215.99220825 71.26424316 -216.91461182 71.27661133 C-219.28244803 71.30469724 -221.65011117 71.32368056 -224.01806641 71.33789062 C-225.92954468 71.35154663 -225.92954468 71.35154663 -227.87963867 71.36547852 C-238.03419907 70.98263957 -246.59688903 66.34091848 -253.51416016 58.99023438 C-259.81556806 50.95111231 -261.41213345 42.28222197 -260.20166016 32.24023438 C-257.86566698 22.93563234 -252.86871462 15.79181402 -245.01416016 10.36523438 C-227.45087656 0.0476846 -199.79334697 4.04569618 -180.15811157 3.79467773 C-172.99410468 3.70294129 -165.83029544 3.5973259 -158.66650391 3.49023438 C-157.96902227 3.47987656 -157.27154064 3.46951874 -156.5529232 3.45884705 C-145.35941295 3.29110014 -134.17721479 3.01200025 -122.98950195 2.61523438 C-113.85821607 2.31012321 -104.72754021 2.13472596 -95.59228516 1.99023438 C-94.59855676 1.97451637 -94.59855676 1.97451637 -93.58475304 1.95848083 C-86.22122857 1.84259928 -78.8576349 1.73427087 -71.49389648 1.6328125 C-59.64773928 1.46223217 -47.81620836 1.22518893 -35.97900391 0.72460938 C-23.9852798 0.22236835 -12.00392155 0.02147072 0 0 Z " fill="#FFBD59" transform="translate(730.20166015625,1200.759765625)"/>
<path d="M0 0 C11.55 0 23.1 0 35 0 C35 5.61 35 11.22 35 17 C35.19752365 19.75327857 35.3950473 22.50655714 35.59855652 25.34326839 C35.42119324 37.61151277 24.55390796 45.59209048 16.4230957 53.50770569 C14.52202444 55.41647511 12.62438361 57.32817236 10.73042011 59.24394602 C6.6133618 63.39559725 2.4677105 67.51681782 -1.69843674 71.61918259 C-7.89296293 77.71913474 -14.04075782 83.86464488 -20.18004432 90.02012831 C-30.51000724 100.37472548 -40.87678322 110.69170092 -51.26528931 120.98753548 C-61.54831555 131.17904548 -71.81478316 141.38677399 -82.05966187 151.61663628 C-82.69716752 152.25318722 -83.33467317 152.88973817 -83.99149718 153.54557853 C-87.22912451 156.77852024 -90.46646553 160.01174849 -93.70369995 163.24508362 C-116.62159917 186.13427977 -139.57672965 208.98580008 -162.55371094 231.81567383 C-184.87133145 253.99055081 -207.17062054 276.18361238 -229.44628906 298.40063477 C-230.13314019 299.08566454 -230.81999132 299.77069431 -231.52765612 300.47648257 C-237.73981653 306.67219868 -243.95177354 312.86811868 -250.16350359 319.06426627 C-292.96266762 361.75580022 -335.78131549 404.42782086 -378.65181391 447.04772962 C-382.53607841 450.90950081 -386.41909648 454.7725223 -390.30156326 458.63610077 C-394.92690864 463.23887805 -399.55398324 467.83990766 -404.18348554 472.43850402 C-406.51739524 474.75689505 -408.85027272 477.07630755 -411.18157613 479.3973198 C-413.68400498 481.88837069 -416.18944174 484.37635414 -418.695755 486.86349583 C-419.43084105 487.59663532 -420.16592709 488.32977482 -420.92328846 489.08513066 C-421.91533294 490.06765479 -421.91533294 490.06765479 -422.92741871 491.07002789 C-423.50104769 491.64023301 -424.07467666 492.21043813 -424.66568834 492.7979222 C-426 494 -426 494 -427 494 C-427.01417969 493.41734375 -427.02835938 492.8346875 -427.04296875 492.234375 C-427.59204744 482.79615749 -430.20382056 474.14994609 -437.1875 467.5 C-442.80699661 462.97997012 -449.04211372 460.63995947 -456 459 C-454.65465303 456.00515528 -453.16617025 453.91672505 -450.84810442 451.60085809 C-450.19452806 450.94304338 -449.54095171 450.28522866 -448.86757001 449.60748017 C-448.1463414 448.89179143 -447.42511279 448.1761027 -446.68202877 447.43872643 C-445.9151874 446.66987696 -445.14834603 445.9010275 -444.35826704 445.10887957 C-441.76644593 442.51273939 -439.16750373 439.92384518 -436.56858826 437.33480835 C-434.69860999 435.46467415 -432.82903355 433.59414608 -430.95994431 431.72312415 C-426.88456802 427.64513844 -422.80548819 423.57088678 -418.72398567 419.49903297 C-412.6548531 413.44420786 -406.5914578 407.38366191 -400.52926245 401.3218921 C-390.33185737 391.12550864 -380.12986975 380.93372202 -369.9253521 370.74445724 C-359.81796847 360.65212229 -349.71286592 350.55751177 -339.61073494 340.45991898 C-338.98300245 339.83246909 -338.35526997 339.20501921 -337.70851528 338.55855569 C-334.52066574 335.37211065 -331.33286239 332.1856194 -328.14508034 328.99910684 C-305.5543665 306.41748658 -282.95939562 283.84013048 -260.36157227 261.265625 C-258.99454674 259.90000705 -257.62752131 258.534389 -256.26049597 257.16877086 C-255.58316581 256.49213831 -254.90583565 255.81550575 -254.20798034 255.11836918 C-250.78110694 251.69502468 -247.35423586 248.27167785 -243.92736816 244.84832764 C-243.24781602 244.16947396 -242.56826388 243.49062027 -241.86811925 242.79119527 C-226.08042371 227.01968329 -210.29401184 211.24688671 -194.50805664 195.47363281 C-193.83179543 194.79791772 -193.15553422 194.12220262 -192.45878024 193.42601131 C-177.02742164 178.00709208 -161.59665619 162.58757958 -146.16706181 147.16689491 C-145.51908324 146.51929174 -144.87110467 145.87168857 -144.20349039 145.20446105 C-138.3754913 139.37982794 -132.54751602 133.555171 -126.71966697 127.73038776 C-112.1683895 113.18676864 -97.61562648 98.64464124 -83.05923293 84.10614255 C-72.91770751 73.97707486 -62.77777448 63.84641575 -52.63955956 53.71403454 C-46.60924316 47.68731962 -40.57748186 41.66205876 -34.54372108 35.63879221 C-30.52010794 31.62191316 -26.49827892 27.60325384 -22.47792714 23.58311063 C-20.18291052 21.28832328 -17.88680896 18.99464019 -15.58906131 16.70258693 C-13.12112469 14.24053612 -10.65623211 11.77547897 -8.19213009 9.30959129 C-7.10677542 8.22903469 -7.10677542 8.22903469 -5.9994944 7.12664866 C-5.02288515 6.14743715 -5.02288515 6.14743715 -4.02654642 5.14844358 C-3.4618761 4.58437672 -2.89720577 4.02030986 -2.31542423 3.43915006 C-0.89389209 2.01556805 -0.89389209 2.01556805 0 0 Z " fill="#FF914D" transform="translate(1305,654)"/>
<path d="M0 0 C10.23 0 20.46 0 31 0 C31.020625 4.599375 31.04125 9.19875 31.0625 13.9375 C31.071604 15.36956787 31.08070801 16.80163574 31.09008789 18.27709961 C31.09535424 20.71269905 31.07672649 23.14841883 31.03955078 25.58374023 C31.01654962 27.57050145 31.0351719 29.56022275 31.15966797 31.54321289 C31.21925998 36.96182917 28.76704343 39.90453338 25.125 43.69140625 C23.11853978 45.68697642 21.06253015 47.6252131 19 49.5625 C17.95135057 50.57955384 16.90445625 51.59842062 15.859375 52.61914062 C8.24548587 60 8.24548587 60 7 60 C6.91363281 59.02160156 6.82726562 58.04320312 6.73828125 57.03515625 C5.69231836 47.27603459 4.14781029 39.56869945 -3.3125 32.6875 C-9.33739422 27.97973634 -15.57794027 25.59044137 -23 24 C-19.95153359 20.94543666 -16.89299104 17.90139488 -13.828125 14.86328125 C-12.30202824 13.3464096 -10.77598787 11.8294812 -9.25 10.3125 C-8.47011719 9.54099609 -7.69023438 8.76949219 -6.88671875 7.97460938 C-6.14550781 7.23662109 -5.40429688 6.49863281 -4.640625 5.73828125 C-3.96547852 5.06837158 -3.29033203 4.39846191 -2.59472656 3.70825195 C-0.91986953 2.07595037 -0.91986953 2.07595037 0 0 Z " fill="#FF914D" transform="translate(781,1178)"/>
</svg>
