<?xml version="1.0" encoding="UTF-8"?>
<svg version="1.1" xmlns="http://www.w3.org/2000/svg" width="500" height="500">
<path d="M0 0 C165 0 330 0 500 0 C500 165 500 330 500 500 C335 500 170 500 0 500 C0 335 0 170 0 0 Z " fill="#FFFAEC" transform="translate(0,0)"/>
<path d="M0 0 C2.625 2.25 2.625 2.25 4 4 C8.11490195 2.58550246 11.51871592 0.49064734 15.1328125 -1.87890625 C21.55581841 -5.73539725 31.8826226 -4.92853227 39.03125 -3.31640625 C47.60737079 -0.12683046 52.80946799 4.83906211 57.0546875 12.8515625 C60.48089331 20.6383939 60.28338214 30.61757883 57.3125 38.5 C53.43518321 46.75449672 47.64357096 51.74886849 39.19921875 55.1171875 C30.61802495 57.48513597 21.17326926 56.98408535 13.09765625 53.22265625 C10.04262042 51.44197429 7.56626046 49.43119412 5 47 C4.5875 47.39832031 4.175 47.79664063 3.75 48.20703125 C-3.58244661 54.93389634 -9.84097319 56.56820041 -19.7890625 56.37109375 C-24.40515612 55.83760361 -27.97750223 54.21824646 -32 52 C-32.01458252 52.55985596 -32.02916504 53.11971191 -32.04418945 53.6965332 C-32.11871352 56.23588137 -32.21535581 58.77392078 -32.3125 61.3125 C-32.34633789 62.63411133 -32.34633789 62.63411133 -32.38085938 63.98242188 C-32.41630859 64.82998047 -32.45175781 65.67753906 -32.48828125 66.55078125 C-32.51446533 67.33106689 -32.54064941 68.11135254 -32.56762695 68.9152832 C-33.10479399 71.50527153 -33.90736451 72.41714474 -36 74 C-38.9375 74.4375 -38.9375 74.4375 -42 74 C-44.9906804 71.78427978 -45.9044124 70.5947081 -46.50120544 66.88169861 C-46.50137161 65.65608719 -46.50153778 64.43047577 -46.50170898 63.16772461 C-46.50711197 62.48920944 -46.51251495 61.81069427 -46.51808167 61.11161804 C-46.53056245 58.87474597 -46.51408595 56.63916259 -46.49609375 54.40234375 C-46.49624874 52.8458296 -46.49773767 51.28931505 -46.50050354 49.73280334 C-46.50188717 46.47363182 -46.48933472 43.21490057 -46.46655273 39.95581055 C-46.43814415 35.77689687 -46.44091207 31.59871336 -46.45364285 27.41974545 C-46.46059468 24.2069728 -46.4528169 20.99436918 -46.44038582 17.78161812 C-46.43586813 16.24063324 -46.4355373 14.69963025 -46.43945122 13.15864372 C-46.44235931 11.00634365 -46.42587855 8.85505336 -46.40405273 6.70288086 C-46.39864975 5.47806503 -46.39324677 4.25324921 -46.38768005 2.99131775 C-46 0 -46 0 -44.68959045 -1.89549255 C-41.82195529 -3.77010328 -39.31265013 -3.34870001 -36 -3 C-33.5625 -1.5 -33.5625 -1.5 -32 0 C-30.9171875 -0.7115625 -30.9171875 -0.7115625 -29.8125 -1.4375 C-20.71255598 -6.49302445 -8.79973052 -4.91456648 0 0 Z " fill="#FFBE5C" transform="translate(322,234)"/>
<path d="M0 0 C3.375 0.875 3.375 0.875 5.375 2.875 C5.63569641 5.67686462 5.63569641 5.67686462 5.6496582 9.29663086 C5.65476913 9.95534683 5.65988007 10.61406281 5.66514587 11.29273987 C5.67907195 13.47519967 5.67808286 15.65734474 5.67578125 17.83984375 C5.67966667 19.3543764 5.68400101 20.86890797 5.68876648 22.38343811 C5.69623525 25.56026743 5.6959328 28.73698564 5.69067383 31.91381836 C5.6848796 35.98736658 5.70180547 40.06046005 5.7250185 44.13393307 C5.73974239 47.26260544 5.74062938 50.39116797 5.73750877 53.51986885 C5.73802271 55.02179426 5.74327404 56.5237257 5.75332069 58.0256176 C5.76564173 60.12537136 5.75892053 62.22423536 5.74731445 64.32397461 C5.74794388 65.51929306 5.7485733 66.71461151 5.7492218 67.94615173 C5.375 70.875 5.375 70.875 4.0743866 72.76490784 C1.24685768 74.61193764 -1.36183942 74.17165096 -4.625 73.875 C-5.615 72.885 -5.615 72.885 -6.625 71.875 C-6.625 70.885 -6.625 69.895 -6.625 68.875 C-7.31207031 69.22433594 -7.99914062 69.57367188 -8.70703125 69.93359375 C-9.60808594 70.38863281 -10.50914062 70.84367187 -11.4375 71.3125 C-12.33082031 71.76496094 -13.22414063 72.21742188 -14.14453125 72.68359375 C-20.16749692 75.57651427 -26.73428241 76.02670014 -33.171875 74.12109375 C-42.34883426 70.19471017 -46.45355805 64.85152065 -50.625 55.875 C-53.4966743 47.51791193 -52.48826956 36.72972787 -48.74609375 28.8828125 C-44.98879149 22.15370672 -38.97531871 17.32510624 -31.625 14.875 C-23.067196 14.14284566 -16.30445608 14.99193417 -8.625 18.875 C-8.58632813 17.32039063 -8.58632813 17.32039063 -8.546875 15.734375 C-8.49058049 14.36454199 -8.43323345 12.99475195 -8.375 11.625 C-8.36082031 10.94308594 -8.34664063 10.26117188 -8.33203125 9.55859375 C-8.16708123 6.16062334 -7.82958016 4.15509043 -5.8046875 1.3828125 C-3.625 -0.125 -3.625 -0.125 0 0 Z " fill="#FFBE5C" transform="translate(435.625,215.125)"/>
<path d="M0 0 C0.99 0.66 1.98 1.32 3 2 C3.33 1.01 3.66 0.02 4 -1 C6.84083641 -2.42041821 8.85477278 -2.31452272 12 -2 C14.16650391 -0.66601562 14.16650391 -0.66601562 16 2 C16.58818247 5.65446978 16.51204931 9.27480274 16.4609375 12.96875 C16.45956284 14.57743958 16.45956284 14.57743958 16.4581604 16.21862793 C16.45212165 18.48482695 16.43636759 20.75101789 16.41162109 23.01708984 C16.37513719 26.48695266 16.37060162 29.95574674 16.37109375 33.42578125 C16.36126164 35.6276134 16.34960423 37.82943831 16.3359375 40.03125 C16.33371185 41.06987183 16.33148621 42.10849365 16.32919312 43.17858887 C16.31643341 44.14639282 16.30367371 45.11419678 16.29052734 46.11132812 C16.27909195 47.38562683 16.27909195 47.38562683 16.26742554 48.68566895 C15.97407969 51.22431735 15.35814095 52.84413988 14 55 C11.20129973 56.39935013 9.09501208 56.25265405 6 56 C4.30859375 54.484375 4.30859375 54.484375 3 53 C2.39671875 53.20496094 1.7934375 53.40992188 1.171875 53.62109375 C0.37265625 53.89050781 -0.4265625 54.15992188 -1.25 54.4375 C-2.03890625 54.70433594 -2.8278125 54.97117187 -3.640625 55.24609375 C-11.5513275 57.77385134 -19.65784812 58.50375958 -27.375 54.9375 C-34.79799292 50.66689991 -38.66650476 45.1999537 -41.30078125 37.0859375 C-43.66491899 26.6520335 -42.41824758 17.23159652 -37 8 C-28.15164216 -4.14179127 -13.24815465 -6.13184228 0 0 Z " fill="#FF9451" transform="translate(131,233)"/>
<path d="M0 0 C2.83346946 1.58579047 5.20797975 3.19548078 7.3125 5.6875 C7.3125 6.3475 7.3125 7.0075 7.3125 7.6875 C8.03695312 7.13320312 8.76140625 6.57890625 9.5078125 6.0078125 C10.47460938 5.28335938 11.44140625 4.55890625 12.4375 3.8125 C13.38882813 3.09320313 14.34015625 2.37390625 15.3203125 1.6328125 C22.28326929 -2.89401842 29.22735402 -3.06305997 37.3125 -2.3125 C44.57524134 -0.65329644 49.2999122 2.45029806 53.3125 8.6875 C57.78413634 16.57632568 57.87334856 24.51105423 57.72412109 33.32128906 C57.68722666 35.57922869 57.68310538 37.83553789 57.68359375 40.09375 C57.60029599 52.35344967 57.60029599 52.35344967 55.3125 55.6875 C52.51379973 57.08685013 50.40751208 56.94015405 47.3125 56.6875 C45.64428711 55.6237793 45.64428711 55.6237793 44.3125 53.6875 C43.94360352 50.44458008 43.94360352 50.44458008 43.94140625 46.45703125 C43.92400962 44.99934678 43.90642541 43.54166454 43.88867188 42.08398438 C43.8786455 39.79772552 43.87499127 37.51162161 43.87670898 35.2253418 C44.03271262 23.34999538 44.03271262 23.34999538 39.3125 12.6875 C35.03777722 9.64769713 31.48501107 8.89847289 26.3125 9.6875 C20.68513753 12.29134738 16.7740305 15.32008961 14.0871582 21.06982422 C12.37419469 26.8581617 12.74502126 33.00915739 12.75 39 C12.74524442 41.70529102 12.71959349 44.40796731 12.68359375 47.11328125 C12.68286865 48.30348877 12.68214355 49.49369629 12.68139648 50.7199707 C12.3125 53.6875 12.3125 53.6875 10.97680664 55.57495117 C8.37067334 57.3170884 6.35719979 57.06808747 3.3125 56.6875 C1.27582385 55.14243534 0.45176922 53.96603844 -0.6875 51.6875 C-0.7957017 49.20612396 -0.8488159 46.74778754 -0.86328125 44.265625 C-0.88648909 42.74998626 -0.91060682 41.23436123 -0.93554688 39.71875 C-0.97058454 37.3312882 -0.99996149 34.9443276 -1.01342773 32.55664062 C-1.0289762 30.25068383 -1.06923492 27.94619123 -1.11328125 25.640625 C-1.11137283 24.93415833 -1.10946442 24.22769165 -1.10749817 23.49981689 C-1.23076861 18.46315619 -2.52443435 15.57092574 -5.6875 11.6875 C-9.61632893 9.35143956 -13.19248121 9.08816416 -17.6875 9.6875 C-23.69060184 12.58899922 -27.08223496 15.47273879 -29.6875 21.6875 C-30.12248675 25.1940536 -30.12248675 25.1940536 -30.05859375 28.9140625 C-30.07596236 30.28906516 -30.09354686 31.66406511 -30.11132812 33.0390625 C-30.12142242 35.18299134 -30.12498871 37.32675141 -30.12329102 39.47070312 C-30.12686257 41.55649204 -30.154188 43.64100175 -30.18359375 45.7265625 C-30.18544678 46.96615723 -30.1872998 48.20575195 -30.18920898 49.48291016 C-30.77617064 53.25775518 -31.64528798 54.44478419 -34.6875 56.6875 C-37.82867776 57.13623968 -39.72881115 57.38698511 -42.34683228 55.47680664 C-44.13559767 53.08945163 -44.06788212 51.58921053 -44.07568359 48.62109375 C-44.08514008 47.58992432 -44.09459656 46.55875488 -44.1043396 45.49633789 C-44.09826691 44.38379639 -44.09219421 43.27125488 -44.0859375 42.125 C-44.08880768 40.98216553 -44.09167786 39.83933105 -44.09463501 38.66186523 C-44.09667757 36.24429835 -44.09113438 33.82671501 -44.07861328 31.40917969 C-44.06256321 27.70209915 -44.07845641 23.996109 -44.09765625 20.2890625 C-44.09567385 17.94270592 -44.09183025 15.59635002 -44.0859375 13.25 C-44.09201019 12.1374585 -44.09808289 11.02491699 -44.1043396 9.87866211 C-44.09488312 8.84749268 -44.08542664 7.81632324 -44.07568359 6.75390625 C-44.07329681 5.84584229 -44.07091003 4.93777832 -44.06845093 4.00219727 C-43.61095169 1.22238454 -42.94864466 0.32810667 -40.6875 -1.3125 C-35.53628049 -1.95640244 -35.53628049 -1.95640244 -32.875 0.0625 C-31.6875 1.6875 -31.6875 1.6875 -30.6875 3.6875 C-30.14480469 3.33816406 -29.60210937 2.98882812 -29.04296875 2.62890625 C-27.96982422 1.94634766 -27.96982422 1.94634766 -26.875 1.25 C-26.16730469 0.79753906 -25.45960938 0.34507812 -24.73046875 -0.12109375 C-17.52234187 -4.32468591 -7.28891891 -3.57995575 0 0 Z " fill="#FF9350" transform="translate(204.6875,232.3125)"/>
<path d="M0 0 C1.95733962 1.55968597 3.38812131 3.06574557 5 5 C3.9427871 7.76501836 2.80669719 10.3711414 1.4375 13 C0.1228515 15.74361426 -0.56025027 18.00970184 -1 21 C-2.31441913 19.0283713 -3.58714134 17.02817985 -4.8125 15 C-7.03101259 11.95746845 -8.67659245 10.66170378 -12 9 C-12.66 8.67 -13.32 8.34 -14 8 C-19.86532633 7.41346737 -24.22870158 8.63934633 -29 12 C-31.89240351 14.58060772 -32.23553667 16.87383141 -32.46875 20.58984375 C-32.49525387 22.37222922 -32.50511867 24.15492483 -32.5 25.9375 C-32.52835937 26.83146484 -32.55671875 27.72542969 -32.5859375 28.64648438 C-32.59948459 33.20846572 -32.53600954 35.31301444 -29.65625 39.00390625 C-25.46030349 42.15703664 -23.36762349 43.29288919 -18.125 43.3125 C-17.09632813 43.32925781 -16.06765625 43.34601563 -15.0078125 43.36328125 C-11.59092967 42.9505928 -9.74940909 42.03785427 -7 40 C-5.97695052 38.34738161 -4.97383946 36.68208635 -4 35 C-3.01 34.67 -2.02 34.34 -1 34 C0.06099328 35.73835057 1.09826483 37.49119804 2.125 39.25 C2.70507812 40.22453125 3.28515625 41.1990625 3.8828125 42.203125 C5 45 5 45 4.3828125 47.1953125 C2.95865334 49.0539609 1.66679098 50.28669999 -0.25 51.625 C-0.81203125 52.02976562 -1.3740625 52.43453125 -1.953125 52.8515625 C-8.62866424 56.59699864 -15.53505848 56.76426782 -23 56 C-26.22708426 54.98045415 -29.04695597 53.62758814 -32 52 C-32.01458252 52.55985596 -32.02916504 53.11971191 -32.04418945 53.6965332 C-32.11871352 56.23588137 -32.21535581 58.77392078 -32.3125 61.3125 C-32.34633789 62.63411133 -32.34633789 62.63411133 -32.38085938 63.98242188 C-32.41630859 64.82998047 -32.45175781 65.67753906 -32.48828125 66.55078125 C-32.51446533 67.33106689 -32.54064941 68.11135254 -32.56762695 68.9152832 C-33.10479399 71.50527153 -33.90736451 72.41714474 -36 74 C-38.9375 74.4375 -38.9375 74.4375 -42 74 C-44.9906804 71.78427978 -45.9044124 70.5947081 -46.50120544 66.88169861 C-46.50137161 65.65608719 -46.50153778 64.43047577 -46.50170898 63.16772461 C-46.50711197 62.48920944 -46.51251495 61.81069427 -46.51808167 61.11161804 C-46.53056245 58.87474597 -46.51408595 56.63916259 -46.49609375 54.40234375 C-46.49624874 52.8458296 -46.49773767 51.28931505 -46.50050354 49.73280334 C-46.50188717 46.47363182 -46.48933472 43.21490057 -46.46655273 39.95581055 C-46.43814415 35.77689687 -46.44091207 31.59871336 -46.45364285 27.41974545 C-46.46059468 24.2069728 -46.4528169 20.99436918 -46.44038582 17.78161812 C-46.43586813 16.24063324 -46.4355373 14.69963025 -46.43945122 13.15864372 C-46.44235931 11.00634365 -46.42587855 8.85505336 -46.40405273 6.70288086 C-46.39864975 5.47806503 -46.39324677 4.25324921 -46.38768005 2.99131775 C-46 0 -46 0 -44.68959045 -1.89549255 C-41.82195529 -3.77010328 -39.31265013 -3.34870001 -36 -3 C-33.5625 -1.5 -33.5625 -1.5 -32 0 C-30.9171875 -0.7115625 -30.9171875 -0.7115625 -29.8125 -1.4375 C-20.76850138 -6.46194368 -8.72393125 -4.99193872 0 0 Z " fill="#FF9350" transform="translate(322,234)"/>
<path d="M0 0 C5.68612103 2.3284116 9.04316433 5.58770515 12 11 C12.49609375 14.65625 12.49609375 14.65625 12.4375 18.5 C12.43621094 19.7684375 12.43492187 21.036875 12.43359375 22.34375 C11.81823501 27.53272103 10.31547344 30.81286543 6.4375 34.3125 C1.01424482 38.06706128 -4.56364686 37.54877554 -11 37 C-15.38362777 35.07735624 -18.08972858 32.49525498 -20.30859375 28.1875 C-22.1179508 22.46298053 -21.95284227 15.68397366 -19.8125 10.0625 C-15.05750134 2.02819191 -9.2141799 -1.46761158 0 0 Z " fill="#FFFAEA" transform="translate(355,241)"/>
<path d="M0 0 C3.93792318 2.56821077 6.74612583 5.61725165 8.875 9.875 C9.4772419 18.8043944 9.83133373 26.17685369 3.875 33.25 C-0.24532943 36.59776766 -4.94052438 36.31931545 -10.03125 36.30078125 C-14.80632024 35.64360618 -17.86225704 33.32546242 -21.125 29.875 C-22.92984412 26.26531177 -22.43805733 22.1005929 -22.5 18.125 C-22.55607422 16.78308594 -22.55607422 16.78308594 -22.61328125 15.4140625 C-22.67163283 11.01824358 -22.63282989 7.86924429 -19.8125 4.3515625 C-13.96025238 -1.04135173 -7.54860813 -2.71749893 0 0 Z " fill="#FFF9EA" transform="translate(311.125,242.125)"/>
<path d="M0 0 C4.36283868 1.49757685 7.79077635 3.92192728 10 8 C10.47124175 11.31745005 10.463922 14.59151452 10.4375 17.9375 C10.4674707 19.27844727 10.4674707 19.27844727 10.49804688 20.64648438 C10.49498246 24.77424554 10.39395691 27.3242607 8.28515625 30.94140625 C3.57357619 35.18585529 0.39872891 36.43060482 -6 36.4375 C-7.794375 36.46650391 -7.794375 36.46650391 -9.625 36.49609375 C-13.59064774 35.91318025 -15.17702406 34.78749868 -18 32 C-22.18009676 25.51364296 -22.02430711 17.47663533 -21 10 C-15.66156524 0.69336528 -10.51662419 -1.39293036 0 0 Z " fill="#FFF8E9" transform="translate(124,242)"/>
<path d="M0 0 C2.09769154 0.97323582 4.00186252 1.9452117 5.92578125 3.23046875 C7.01246094 3.95363281 7.01246094 3.95363281 8.12109375 4.69140625 C11.06302467 8.83048655 10.6229634 13.15466189 10.61328125 18.10546875 C10.65388672 19.08644531 10.69449219 20.06742187 10.73632812 21.078125 C10.76953365 28.10820946 10.76953365 28.10820946 8.42431641 31.22753906 C3.16832485 35.86477154 -1.45709215 36.58968822 -8.34375 36.5078125 C-12.22701769 36.11337472 -14.2613807 34.9026649 -17.07421875 32.23046875 C-20.9528445 25.8106744 -21.84185395 19.62869207 -21.07421875 12.23046875 C-19.73227302 7.29860452 -17.45767115 4.13911925 -13.26171875 1.23046875 C-8.7127735 -1.25000971 -4.98261473 -1.84854068 0 0 Z " fill="#FFFAEA" transform="translate(418.07421875,241.76953125)"/>
<path d="M0 0 C1.9375 2.0625 1.9375 2.0625 3 4 C3.598125 3.360625 4.19625 2.72125 4.8125 2.0625 C7.73891908 -0.69669513 10.11383667 -1.15069921 14 -1.1875 C14.680625 -1.20167969 15.36125 -1.21585938 16.0625 -1.23046875 C18 -1 18 -1 21 1 C21.3125 4.5 21.3125 4.5 21 8 C18.60397626 10.39602374 17.34838352 10.48831477 14.0625 11.0625 C11.24886858 11.56389824 8.71889491 12.0937017 6 13 C4.81608777 15.37625345 4.81608777 15.37625345 4 18 C3.67 18.99 3.34 19.98 3 21 C2.89487037 23.38251618 2.84477053 25.76759781 2.82421875 28.15234375 C2.80102562 29.58269709 2.77690849 31.01303569 2.75195312 32.44335938 C2.71681825 34.69272821 2.68747586 36.94155199 2.67407227 39.19116211 C2.6585843 41.36638787 2.61838406 43.54003581 2.57421875 45.71484375 C2.55963623 47.01542725 2.54505371 48.31601074 2.5300293 49.65600586 C1.91914062 53.51014784 1.11906556 54.72526185 -2 57 C-5.14067196 57.44866742 -7.04113854 57.70002948 -9.65834045 55.78930664 C-11.44668268 53.40428085 -11.38640352 51.89984552 -11.40405273 48.93359375 C-11.42307899 47.3868396 -11.42307899 47.3868396 -11.44248962 45.80883789 C-11.43955399 44.69629639 -11.43661835 43.58375488 -11.43359375 42.4375 C-11.4388356 41.29466553 -11.44407745 40.15183105 -11.44947815 38.97436523 C-11.45590496 36.55681166 -11.45455289 34.13922684 -11.44604492 31.72167969 C-11.43753309 28.01441022 -11.46629268 24.30867971 -11.49804688 20.6015625 C-11.49965882 18.2552088 -11.49908148 15.90885235 -11.49609375 13.5625 C-11.50732773 12.4499585 -11.51856171 11.33741699 -11.53013611 10.19116211 C-11.52075516 9.15999268 -11.51137421 8.12882324 -11.50170898 7.06640625 C-11.50154282 6.15834229 -11.50137665 5.25027832 -11.50120544 4.31469727 C-11 2 -11 2 -9.19129944 0.17944336 C-5.83721756 -1.62585514 -3.59157303 -0.97951992 0 0 Z " fill="#FF924F" transform="translate(69,232)"/>
</svg>
